<?xml version="1.0" encoding="UTF-8" standalone="no"?>
<svg
   version="1.0"
   width="38.000000pt"
   height="38.000000pt"
   viewBox="0 0 172.000000 172.000000"
   preserveAspectRatio="xMidYMid meet"
   id="svg3"
   sodipodi:docname="logo.svg"
   inkscape:version="1.3 (0e150ed6c4, 2023-07-21)"
   xml:space="preserve"
   xmlns:inkscape="http://www.inkscape.org/namespaces/inkscape"
   xmlns:sodipodi="http://sodipodi.sourceforge.net/DTD/sodipodi-0.dtd"
   xmlns="http://www.w3.org/2000/svg"
   xmlns:svg="http://www.w3.org/2000/svg"><defs
     id="defs3" /><sodipodi:namedview
     id="namedview3"
     pagecolor="#ffffff"
     bordercolor="#666666"
     borderopacity="1.0"
     inkscape:showpageshadow="2"
     inkscape:pageopacity="0.0"
     inkscape:pagecheckerboard="0"
     inkscape:deskcolor="#d1d1d1"
     inkscape:document-units="pt"
     inkscape:zoom="16.27276"
     inkscape:cx="16.991586"
     inkscape:cy="39.175899"
     inkscape:window-width="2065"
     inkscape:window-height="1307"
     inkscape:window-x="461"
     inkscape:window-y="103"
     inkscape:window-maximized="0"
     inkscape:current-layer="svg3" /><metadata
     id="metadata1">&#10;Created by Docfx&#10;</metadata><g
     id="Layer_1"
     transform="matrix(1.1607404,0,0,1.1607404,2.0926656,1.6179702)" /><g
     id="Ebene_1"
     transform="matrix(1.1607404,0,0,1.1607404,2.0926656,1.6179702)" /><style
     type="text/css"
     id="style1">&#10;	.st0{fill:#DC786F;}&#10;	.st1{fill:#CBD1DE;}&#10;	.st2{fill:#485C78;}&#10;	.st3{fill:#2A344B;}&#10;	.st4{fill:#F4F1EF;}&#10;	.st5{fill:#222323;}&#10;	.st6{fill:#FFFFFF;}&#10;	.st7{fill:#2B344C;}&#10;	.st8{fill:#DC7970;}&#10;	.st9{fill:#4A5C79;}&#10;	.st10{fill:#CBD1DD;}&#10;</style><g
     id="g1"
     transform="matrix(1.3165547,0,0,1.3165547,-6.2773454,-6.9257897)"><g
       id="Layer_1-7">&#10;</g><g
       id="Ebene_1-5">&#10;</g><g
       id="Isolation_Mode-3">&#10;	<path
   class="st8"
   d="M 114.96,39.42 76.05,16.96 c -3.21,-1.85 -7.16,-1.85 -10.36,0 L 26.77,39.42 c -3.21,1.85 -5.18,5.27 -5.18,8.98 v 44.93 c 0,3.7 1.98,7.12 5.18,8.98 l 38.91,22.47 c 3.21,1.85 7.16,1.85 10.36,0 l 38.91,-22.47 c 3.21,-1.85 5.18,-5.27 5.18,-8.98 V 48.4 c 0.01,-3.7 -1.96,-7.12 -5.17,-8.98 z M 91.44,83.05 c -1.02,0 -2,-0.13 -2.94,-0.36 -2.2,-0.55 -4.52,0.11 -5.96,1.87 l -7.15,8.72 c -0.74,0.91 -0.85,2.17 -0.3,3.2 1.69,3.21 1.41,7.25 -1.03,10.24 -3.33,4.06 -9.39,4.57 -13.36,1.04 -3.63,-3.23 -4.12,-8.91 -1.08,-12.71 2.41,-3.02 6.29,-4.14 9.77,-3.17 1.19,0.33 2.47,-0.01 3.25,-0.97 l 7.06,-8.6 c 1.44,-1.75 1.73,-4.17 0.76,-6.22 -0.01,-0.02 -0.02,-0.04 -0.03,-0.06 -0.96,-2.05 -3.02,-3.35 -5.28,-3.35 h -11.2 c -1.19,0 -2.22,0.75 -2.69,1.84 -1.41,3.32 -4.71,5.65 -8.55,5.65 -5.25,0 -9.49,-4.36 -9.27,-9.67 0.19,-4.86 4.28,-8.83 9.14,-8.9 3.86,-0.05 7.19,2.24 8.64,5.55 0.5,1.13 1.57,1.9 2.81,1.9 h 11.12 c 2.25,0 4.32,-1.28 5.27,-3.32 0.02,-0.03 0.03,-0.07 0.05,-0.1 0.98,-2.05 0.7,-4.48 -0.74,-6.24 l -7.08,-8.67 c -0.74,-0.91 -1.96,-1.26 -3.08,-0.93 -3.48,1.03 -7.39,-0.05 -9.83,-3.04 -3.32,-4.07 -2.62,-10.11 1.62,-13.3 3.89,-2.92 9.54,-2.27 12.67,1.45 2.48,2.96 2.81,6.99 1.17,10.21 -0.56,1.1 -0.48,2.42 0.31,3.38 l 7.06,8.64 c 1.45,1.77 3.79,2.46 6.01,1.92 1.19,-0.29 2.45,-0.4 3.75,-0.31 6.09,0.45 11.02,5.53 11.26,11.64 0.29,6.95 -5.26,12.67 -12.15,12.67 z"
   id="path1" />&#10;</g></g></svg>
